<svg width="100" height="100" viewBox="0 0 100 100" fill="none" xmlns="http://www.w3.org/2000/svg">
<rect width="100" height="100" rx="50" fill="#EFEBFF"/>
<g opacity="0.5">
<mask id="mask0_1173_517" style="mask-type:alpha" maskUnits="userSpaceOnUse" x="25" y="25" width="50" height="50">
<rect x="25" y="25" width="50" height="50" fill="#D9D9D9"/>
</mask>
<g mask="url(#mask0_1173_517)">
<path d="M33.3329 68.7496C32.1871 68.7496 31.2062 68.3416 30.3902 67.5256C29.5742 66.7097 29.1663 65.7288 29.1663 64.5829V41.6663C29.1663 40.5204 29.5742 39.5395 30.3902 38.7236C31.2062 37.9076 32.1871 37.4996 33.3329 37.4996H41.6663V33.3329C41.6663 32.1871 42.0742 31.2062 42.8902 30.3902C43.7062 29.5742 44.6871 29.1663 45.8329 29.1663H54.1663C55.3121 29.1663 56.293 29.5742 57.109 30.3902C57.9249 31.2062 58.3329 32.1871 58.3329 33.3329V37.4996H66.6662C67.8121 37.4996 68.793 37.9076 69.609 38.7236C70.4249 39.5395 70.8329 40.5204 70.8329 41.6663V64.5829C70.8329 65.7288 70.4249 66.7097 69.609 67.5256C68.793 68.3416 67.8121 68.7496 66.6662 68.7496H33.3329ZM33.3329 64.5829H66.6662V41.6663H33.3329V64.5829ZM45.8329 37.4996H54.1663V33.3329H45.8329V37.4996Z" fill="#190073"/>
</g>
</g>
</svg>
