<svg width="221" height="90" viewBox="0 0 221 90" fill="none" xmlns="http://www.w3.org/2000/svg">
<rect width="221" height="90" rx="12" fill="#B2ACC9"/>
<rect x="16" y="20" width="50" height="50" rx="25" fill="#F4F1FF"/>
<mask id="mask0_913_4776" style="mask-type:alpha" maskUnits="userSpaceOnUse" x="29" y="33" width="24" height="24">
<rect x="29" y="33" width="24" height="24" fill="#D9D9D9"/>
</mask>
<g mask="url(#mask0_913_4776)">
<path d="M36 54V52H40V48.9C39.1833 48.7167 38.4542 48.3708 37.8125 47.8625C37.1708 47.3542 36.7 46.7167 36.4 45.95C35.15 45.8 34.1042 45.2542 33.2625 44.3125C32.4208 43.3708 32 42.2667 32 41V40C32 39.45 32.1958 38.9792 32.5875 38.5875C32.9792 38.1958 33.45 38 34 38H36V36H46V38H48C48.55 38 49.0208 38.1958 49.4125 38.5875C49.8042 38.9792 50 39.45 50 40V41C50 42.2667 49.5792 43.3708 48.7375 44.3125C47.8958 45.2542 46.85 45.8 45.6 45.95C45.3 46.7167 44.8292 47.3542 44.1875 47.8625C43.5458 48.3708 42.8167 48.7167 42 48.9V52H46V54H36ZM36 43.8V40H34V41C34 41.6333 34.1833 42.2042 34.55 42.7125C34.9167 43.2208 35.4 43.5833 36 43.8ZM41 47C41.8333 47 42.5417 46.7083 43.125 46.125C43.7083 45.5417 44 44.8333 44 44V38H38V44C38 44.8333 38.2917 45.5417 38.875 46.125C39.4583 46.7083 40.1667 47 41 47ZM46 43.8C46.6 43.5833 47.0833 43.2208 47.45 42.7125C47.8167 42.2042 48 41.6333 48 41V40H46V43.8Z" fill="#1C1B1F"/>
</g>
<path d="M91.032 39.144C89.768 39.144 88.6 38.936 87.528 38.52C86.456 38.088 85.528 37.488 84.744 36.72C83.96 35.952 83.344 35.048 82.896 34.008C82.464 32.968 82.248 31.832 82.248 30.6C82.248 29.368 82.464 28.232 82.896 27.192C83.344 26.152 83.96 25.248 84.744 24.48C85.544 23.712 86.48 23.12 87.552 22.704C88.624 22.272 89.792 22.056 91.056 22.056C92.272 22.056 93.416 22.264 94.488 22.68C95.56 23.08 96.464 23.688 97.2 24.504L96.072 25.632C95.384 24.928 94.624 24.424 93.792 24.12C92.96 23.8 92.064 23.64 91.104 23.64C90.096 23.64 89.16 23.816 88.296 24.168C87.432 24.504 86.68 24.992 86.04 25.632C85.4 26.256 84.896 26.992 84.528 27.84C84.176 28.672 84 29.592 84 30.6C84 31.608 84.176 32.536 84.528 33.384C84.896 34.216 85.4 34.952 86.04 35.592C86.68 36.216 87.432 36.704 88.296 37.056C89.16 37.392 90.096 37.56 91.104 37.56C92.064 37.56 92.96 37.4 93.792 37.08C94.624 36.76 95.384 36.248 96.072 35.544L97.2 36.672C96.464 37.488 95.56 38.104 94.488 38.52C93.416 38.936 92.264 39.144 91.032 39.144ZM108.335 39V36.216L108.263 35.76V31.104C108.263 30.032 107.959 29.208 107.351 28.632C106.759 28.056 105.871 27.768 104.687 27.768C103.871 27.768 103.095 27.904 102.359 28.176C101.623 28.448 100.999 28.808 100.487 29.256L99.7185 27.984C100.359 27.44 101.127 27.024 102.023 26.736C102.919 26.432 103.863 26.28 104.855 26.28C106.487 26.28 107.743 26.688 108.623 27.504C109.519 28.304 109.967 29.528 109.967 31.176V39H108.335ZM103.991 39.12C103.047 39.12 102.223 38.968 101.519 38.664C100.831 38.344 100.303 37.912 99.9345 37.368C99.5665 36.808 99.3825 36.168 99.3825 35.448C99.3825 34.792 99.5345 34.2 99.8385 33.672C100.159 33.128 100.671 32.696 101.375 32.376C102.095 32.04 103.055 31.872 104.255 31.872H108.599V33.144H104.303C103.087 33.144 102.239 33.36 101.759 33.792C101.295 34.224 101.062 34.76 101.062 35.4C101.062 36.12 101.343 36.696 101.903 37.128C102.463 37.56 103.247 37.776 104.255 37.776C105.215 37.776 106.039 37.56 106.727 37.128C107.431 36.68 107.943 36.04 108.263 35.208L108.647 36.384C108.327 37.216 107.767 37.88 106.967 38.376C106.183 38.872 105.191 39.12 103.991 39.12ZM114.595 39V26.4H116.227V29.832L116.059 29.232C116.411 28.272 117.003 27.544 117.835 27.048C118.667 26.536 119.699 26.28 120.931 26.28V27.936C120.867 27.936 120.803 27.936 120.739 27.936C120.675 27.92 120.611 27.912 120.547 27.912C119.219 27.912 118.179 28.32 117.427 29.136C116.675 29.936 116.299 31.08 116.299 32.568V39H114.595ZM129.275 39.12C127.963 39.12 126.811 38.848 125.819 38.304C124.827 37.744 124.051 36.984 123.491 36.024C122.931 35.048 122.651 33.936 122.651 32.688C122.651 31.44 122.915 30.336 123.443 29.376C123.987 28.416 124.723 27.664 125.651 27.12C126.595 26.56 127.651 26.28 128.819 26.28C130.003 26.28 131.051 26.552 131.963 27.096C132.891 27.624 133.619 28.376 134.147 29.352C134.675 30.312 134.939 31.424 134.939 32.688C134.939 32.768 134.931 32.856 134.915 32.952C134.915 33.032 134.915 33.12 134.915 33.216H123.947V31.944H134.003L133.331 32.448C133.331 31.536 133.131 30.728 132.731 30.024C132.347 29.304 131.819 28.744 131.147 28.344C130.475 27.944 129.699 27.744 128.819 27.744C127.955 27.744 127.179 27.944 126.491 28.344C125.803 28.744 125.267 29.304 124.883 30.024C124.499 30.744 124.307 31.568 124.307 32.496V32.76C124.307 33.72 124.515 34.568 124.931 35.304C125.363 36.024 125.955 36.592 126.707 37.008C127.475 37.408 128.347 37.608 129.323 37.608C130.091 37.608 130.803 37.472 131.459 37.2C132.131 36.928 132.707 36.512 133.187 35.952L134.147 37.056C133.587 37.728 132.883 38.24 132.035 38.592C131.203 38.944 130.283 39.12 129.275 39.12ZM143.759 39.12C142.447 39.12 141.295 38.848 140.303 38.304C139.311 37.744 138.535 36.984 137.975 36.024C137.415 35.048 137.135 33.936 137.135 32.688C137.135 31.44 137.399 30.336 137.927 29.376C138.471 28.416 139.207 27.664 140.135 27.12C141.079 26.56 142.135 26.28 143.303 26.28C144.487 26.28 145.535 26.552 146.447 27.096C147.375 27.624 148.103 28.376 148.631 29.352C149.159 30.312 149.423 31.424 149.423 32.688C149.423 32.768 149.415 32.856 149.399 32.952C149.399 33.032 149.399 33.12 149.399 33.216H138.431V31.944H148.487L147.815 32.448C147.815 31.536 147.615 30.728 147.215 30.024C146.831 29.304 146.303 28.744 145.631 28.344C144.959 27.944 144.183 27.744 143.303 27.744C142.439 27.744 141.663 27.944 140.975 28.344C140.287 28.744 139.751 29.304 139.367 30.024C138.983 30.744 138.791 31.568 138.791 32.496V32.76C138.791 33.72 138.999 34.568 139.415 35.304C139.847 36.024 140.439 36.592 141.191 37.008C141.959 37.408 142.831 37.608 143.807 37.608C144.575 37.608 145.287 37.472 145.943 37.2C146.615 36.928 147.191 36.512 147.671 35.952L148.631 37.056C148.071 37.728 147.367 38.24 146.519 38.592C145.687 38.944 144.767 39.12 143.759 39.12ZM152.892 39V26.4H154.524V29.832L154.356 29.232C154.708 28.272 155.3 27.544 156.132 27.048C156.964 26.536 157.996 26.28 159.228 26.28V27.936C159.164 27.936 159.1 27.936 159.036 27.936C158.972 27.92 158.908 27.912 158.844 27.912C157.516 27.912 156.476 28.32 155.724 29.136C154.972 29.936 154.596 31.08 154.596 32.568V39H152.892ZM88.368 68.144C87.12 68.144 85.92 67.944 84.768 67.544C83.632 67.128 82.752 66.6 82.128 65.96L82.824 64.592C83.416 65.168 84.208 65.656 85.2 66.056C86.208 66.44 87.264 66.632 88.368 66.632C89.424 66.632 90.28 66.504 90.936 66.248C91.608 65.976 92.096 65.616 92.4 65.168C92.72 64.72 92.88 64.224 92.88 63.68C92.88 63.024 92.688 62.496 92.304 62.096C91.936 61.696 91.448 61.384 90.84 61.16C90.232 60.92 89.56 60.712 88.824 60.536C88.088 60.36 87.352 60.176 86.616 59.984C85.88 59.776 85.2 59.504 84.576 59.168C83.968 58.832 83.472 58.392 83.088 57.848C82.72 57.288 82.536 56.56 82.536 55.664C82.536 54.832 82.752 54.072 83.184 53.384C83.632 52.68 84.312 52.12 85.224 51.704C86.136 51.272 87.304 51.056 88.728 51.056C89.672 51.056 90.608 51.192 91.536 51.464C92.464 51.72 93.264 52.08 93.936 52.544L93.336 53.96C92.616 53.48 91.848 53.128 91.032 52.904C90.232 52.68 89.456 52.568 88.704 52.568C87.696 52.568 86.864 52.704 86.208 52.976C85.552 53.248 85.064 53.616 84.744 54.08C84.44 54.528 84.288 55.04 84.288 55.616C84.288 56.272 84.472 56.8 84.84 57.2C85.224 57.6 85.72 57.912 86.328 58.136C86.952 58.36 87.632 58.56 88.368 58.736C89.104 58.912 89.832 59.104 90.552 59.312C91.288 59.52 91.96 59.792 92.568 60.128C93.192 60.448 93.688 60.88 94.056 61.424C94.44 61.968 94.632 62.68 94.632 63.56C94.632 64.376 94.408 65.136 93.96 65.84C93.512 66.528 92.824 67.088 91.896 67.52C90.984 67.936 89.808 68.144 88.368 68.144ZM103.35 68.12C102.278 68.12 101.342 67.92 100.542 67.52C99.7416 67.12 99.1176 66.52 98.6696 65.72C98.2376 64.92 98.0216 63.92 98.0216 62.72V55.4H99.7256V62.528C99.7256 63.872 100.054 64.888 100.71 65.576C101.382 66.248 102.318 66.584 103.518 66.584C104.398 66.584 105.158 66.408 105.798 66.056C106.454 65.688 106.95 65.16 107.286 64.472C107.638 63.784 107.814 62.96 107.814 62V55.4H109.518V68H107.886V64.544L108.15 65.168C107.75 66.096 107.126 66.824 106.278 67.352C105.446 67.864 104.47 68.12 103.35 68.12ZM120.771 68.12C119.683 68.12 118.699 67.872 117.819 67.376C116.939 66.864 116.235 66.136 115.707 65.192C115.195 64.232 114.939 63.064 114.939 61.688C114.939 60.312 115.195 59.152 115.707 58.208C116.219 57.248 116.915 56.52 117.795 56.024C118.675 55.528 119.667 55.28 120.771 55.28C121.971 55.28 123.043 55.552 123.987 56.096C124.947 56.624 125.699 57.376 126.243 58.352C126.787 59.312 127.059 60.424 127.059 61.688C127.059 62.968 126.787 64.088 126.243 65.048C125.699 66.008 124.947 66.76 123.987 67.304C123.043 67.848 121.971 68.12 120.771 68.12ZM114.267 72.656V55.4H115.899V59.192L115.731 61.712L115.971 64.256V72.656H114.267ZM120.651 66.608C121.547 66.608 122.347 66.408 123.051 66.008C123.755 65.592 124.315 65.016 124.731 64.28C125.147 63.528 125.355 62.664 125.355 61.688C125.355 60.712 125.147 59.856 124.731 59.12C124.315 58.384 123.755 57.808 123.051 57.392C122.347 56.976 121.547 56.768 120.651 56.768C119.755 56.768 118.947 56.976 118.227 57.392C117.523 57.808 116.963 58.384 116.547 59.12C116.147 59.856 115.947 60.712 115.947 61.688C115.947 62.664 116.147 63.528 116.547 64.28C116.963 65.016 117.523 65.592 118.227 66.008C118.947 66.408 119.755 66.608 120.651 66.608ZM137.036 68.12C135.948 68.12 134.964 67.872 134.084 67.376C133.204 66.864 132.5 66.136 131.972 65.192C131.46 64.232 131.204 63.064 131.204 61.688C131.204 60.312 131.46 59.152 131.972 58.208C132.484 57.248 133.18 56.52 134.06 56.024C134.94 55.528 135.932 55.28 137.036 55.28C138.236 55.28 139.308 55.552 140.252 56.096C141.212 56.624 141.964 57.376 142.508 58.352C143.052 59.312 143.324 60.424 143.324 61.688C143.324 62.968 143.052 64.088 142.508 65.048C141.964 66.008 141.212 66.76 140.252 67.304C139.308 67.848 138.236 68.12 137.036 68.12ZM130.532 72.656V55.4H132.164V59.192L131.996 61.712L132.236 64.256V72.656H130.532ZM136.916 66.608C137.812 66.608 138.612 66.408 139.316 66.008C140.02 65.592 140.58 65.016 140.996 64.28C141.412 63.528 141.62 62.664 141.62 61.688C141.62 60.712 141.412 59.856 140.996 59.12C140.58 58.384 140.02 57.808 139.316 57.392C138.612 56.976 137.812 56.768 136.916 56.768C136.02 56.768 135.212 56.976 134.492 57.392C133.788 57.808 133.228 58.384 132.812 59.12C132.412 59.856 132.212 60.712 132.212 61.688C132.212 62.664 132.412 63.528 132.812 64.28C133.228 65.016 133.788 65.592 134.492 66.008C135.212 66.408 136.02 66.608 136.916 66.608ZM151.934 68.12C150.718 68.12 149.622 67.848 148.646 67.304C147.686 66.744 146.926 65.984 146.366 65.024C145.806 64.048 145.526 62.936 145.526 61.688C145.526 60.424 145.806 59.312 146.366 58.352C146.926 57.392 147.686 56.64 148.646 56.096C149.606 55.552 150.702 55.28 151.934 55.28C153.182 55.28 154.286 55.552 155.246 56.096C156.222 56.64 156.982 57.392 157.526 58.352C158.086 59.312 158.366 60.424 158.366 61.688C158.366 62.936 158.086 64.048 157.526 65.024C156.982 65.984 156.222 66.744 155.246 67.304C154.27 67.848 153.166 68.12 151.934 68.12ZM151.934 66.608C152.846 66.608 153.654 66.408 154.358 66.008C155.062 65.592 155.614 65.016 156.014 64.28C156.43 63.528 156.638 62.664 156.638 61.688C156.638 60.696 156.43 59.832 156.014 59.096C155.614 58.36 155.062 57.792 154.358 57.392C153.654 56.976 152.854 56.768 151.958 56.768C151.062 56.768 150.262 56.976 149.558 57.392C148.854 57.792 148.294 58.36 147.878 59.096C147.462 59.832 147.254 60.696 147.254 61.688C147.254 62.664 147.462 63.528 147.878 64.28C148.294 65.016 148.854 65.592 149.558 66.008C150.262 66.408 151.054 66.608 151.934 66.608ZM161.845 68V55.4H163.477V58.832L163.309 58.232C163.661 57.272 164.253 56.544 165.085 56.048C165.917 55.536 166.949 55.28 168.181 55.28V56.936C168.117 56.936 168.053 56.936 167.989 56.936C167.925 56.92 167.861 56.912 167.797 56.912C166.469 56.912 165.429 57.32 164.677 58.136C163.925 58.936 163.549 60.08 163.549 61.568V68H161.845ZM175.813 68.12C174.629 68.12 173.717 67.8 173.077 67.16C172.437 66.52 172.117 65.616 172.117 64.448V52.616H173.821V64.352C173.821 65.088 174.005 65.656 174.373 66.056C174.757 66.456 175.301 66.656 176.005 66.656C176.757 66.656 177.381 66.44 177.877 66.008L178.477 67.232C178.141 67.536 177.733 67.76 177.253 67.904C176.789 68.048 176.309 68.12 175.813 68.12ZM169.861 56.816V55.4H177.661V56.816H169.861Z" fill="white"/>
</svg>
