<svg width="100" height="100" viewBox="0 0 100 100" fill="none" xmlns="http://www.w3.org/2000/svg">
<rect width="100" height="100" rx="50" fill="#EFEBFF"/>
<g opacity="0.5">
<mask id="mask0_1173_645" style="mask-type:alpha" maskUnits="userSpaceOnUse" x="25" y="25" width="50" height="50">
<rect x="25" y="25" width="50" height="50" fill="#D9D9D9"/>
</mask>
<g mask="url(#mask0_1173_645)">
<path d="M35.4167 58.698C35.7639 58.5938 36.1024 58.507 36.4323 58.4375C36.7622 58.3681 37.1181 58.3334 37.5 58.3334H39.5833V33.3334H37.5C36.9097 33.3334 36.4149 33.533 36.0156 33.9323C35.6163 34.3316 35.4167 34.8264 35.4167 35.4167V58.698ZM37.5 70.8334C35.7639 70.8334 34.2882 70.2257 33.0729 69.0105C31.8576 67.7952 31.25 66.3195 31.25 64.5834V35.4167C31.25 33.6806 31.8576 32.2049 33.0729 30.9896C34.2882 29.7743 35.7639 29.1667 37.5 29.1667H52.0833V33.3334H43.75V58.3334H56.25V52.0834H60.4167V62.5H37.5C36.9097 62.5 36.4149 62.6997 36.0156 63.099C35.6163 63.4983 35.4167 63.9931 35.4167 64.5834C35.4167 65.1736 35.6163 65.6684 36.0156 66.0677C36.4149 66.4671 36.9097 66.6667 37.5 66.6667H64.5833V50H68.75V70.8334H37.5ZM61.4583 50C61.4583 46.8056 62.5694 44.0973 64.7917 41.875C67.0139 39.6528 69.7222 38.5417 72.9167 38.5417C69.7222 38.5417 67.0139 37.4306 64.7917 35.2084C62.5694 32.9862 61.4583 30.2778 61.4583 27.0834C61.4583 30.2778 60.3472 32.9862 58.125 35.2084C55.9028 37.4306 53.1944 38.5417 50 38.5417C53.1944 38.5417 55.9028 39.6528 58.125 41.875C60.3472 44.0973 61.4583 46.8056 61.4583 50Z" fill="#190073"/>
</g>
</g>
</svg>
