<svg width="245" height="82" viewBox="0 0 245 82" fill="none" xmlns="http://www.w3.org/2000/svg">
<rect width="245" height="82" rx="12" fill="#D3D5AE"/>
<rect x="16" y="16" width="50" height="50" rx="25" fill="#FEFFEE"/>
<path d="M48.6 50L42.3 43.7C41.8 44.1 41.225 44.4167 40.575 44.65C39.925 44.8833 39.2333 45 38.5 45C36.6833 45 35.1458 44.3708 33.8875 43.1125C32.6292 41.8542 32 40.3167 32 38.5C32 36.6833 32.6292 35.1458 33.8875 33.8875C35.1458 32.6292 36.6833 32 38.5 32C40.3167 32 41.8542 32.6292 43.1125 33.8875C44.3708 35.1458 45 36.6833 45 38.5C45 39.2333 44.8833 39.925 44.65 40.575C44.4167 41.225 44.1 41.8 43.7 42.3L50 48.6L48.6 50ZM38.5 43C39.75 43 40.8125 42.5625 41.6875 41.6875C42.5625 40.8125 43 39.75 43 38.5C43 37.25 42.5625 36.1875 41.6875 35.3125C40.8125 34.4375 39.75 34 38.5 34C37.25 34 36.1875 34.4375 35.3125 35.3125C34.4375 36.1875 34 37.25 34 38.5C34 39.75 34.4375 40.8125 35.3125 41.6875C36.1875 42.5625 37.25 43 38.5 43Z" fill="#1C1B1F"/>
<path d="M91.104 49.644C89.824 49.644 88.64 49.436 87.552 49.02C86.48 48.588 85.544 47.988 84.744 47.22C83.96 46.452 83.344 45.548 82.896 44.508C82.464 43.468 82.248 42.332 82.248 41.1C82.248 39.868 82.464 38.732 82.896 37.692C83.344 36.652 83.968 35.748 84.768 34.98C85.568 34.212 86.504 33.62 87.576 33.204C88.664 32.772 89.848 32.556 91.128 32.556C92.408 32.556 93.576 32.756 94.632 33.156C95.704 33.556 96.616 34.164 97.368 34.98L96.264 36.108C95.56 35.404 94.784 34.9 93.936 34.596C93.088 34.292 92.176 34.14 91.2 34.14C90.16 34.14 89.2 34.316 88.32 34.668C87.456 35.004 86.696 35.492 86.04 36.132C85.4 36.756 84.896 37.492 84.528 38.34C84.176 39.172 84 40.092 84 41.1C84 42.092 84.176 43.012 84.528 43.86C84.896 44.708 85.4 45.452 86.04 46.092C86.696 46.716 87.456 47.204 88.32 47.556C89.2 47.892 90.152 48.06 91.176 48.06C92.136 48.06 93.04 47.916 93.888 47.628C94.752 47.34 95.544 46.852 96.264 46.164L97.272 47.508C96.472 48.212 95.536 48.748 94.464 49.116C93.392 49.468 92.272 49.644 91.104 49.644ZM95.568 47.292V41.1H97.272V47.508L95.568 47.292ZM107.075 49.62C105.859 49.62 104.763 49.348 103.787 48.804C102.827 48.244 102.067 47.484 101.507 46.524C100.947 45.548 100.667 44.436 100.667 43.188C100.667 41.924 100.947 40.812 101.507 39.852C102.067 38.892 102.827 38.14 103.787 37.596C104.747 37.052 105.843 36.78 107.075 36.78C108.323 36.78 109.427 37.052 110.387 37.596C111.363 38.14 112.123 38.892 112.667 39.852C113.227 40.812 113.507 41.924 113.507 43.188C113.507 44.436 113.227 45.548 112.667 46.524C112.123 47.484 111.363 48.244 110.387 48.804C109.411 49.348 108.307 49.62 107.075 49.62ZM107.075 48.108C107.987 48.108 108.795 47.908 109.499 47.508C110.203 47.092 110.755 46.516 111.155 45.78C111.571 45.028 111.779 44.164 111.779 43.188C111.779 42.196 111.571 41.332 111.155 40.596C110.755 39.86 110.203 39.292 109.499 38.892C108.795 38.476 107.995 38.268 107.099 38.268C106.203 38.268 105.403 38.476 104.699 38.892C103.995 39.292 103.435 39.86 103.019 40.596C102.603 41.332 102.395 42.196 102.395 43.188C102.395 44.164 102.603 45.028 103.019 45.78C103.435 46.516 103.995 47.092 104.699 47.508C105.403 47.908 106.195 48.108 107.075 48.108ZM124.811 49.5V46.716L124.739 46.26V41.604C124.739 40.532 124.435 39.708 123.827 39.132C123.235 38.556 122.347 38.268 121.163 38.268C120.347 38.268 119.571 38.404 118.835 38.676C118.099 38.948 117.475 39.308 116.963 39.756L116.195 38.484C116.835 37.94 117.603 37.524 118.499 37.236C119.395 36.932 120.339 36.78 121.331 36.78C122.963 36.78 124.219 37.188 125.099 38.004C125.995 38.804 126.443 40.028 126.443 41.676V49.5H124.811ZM120.467 49.62C119.523 49.62 118.699 49.468 117.995 49.164C117.307 48.844 116.779 48.412 116.411 47.868C116.043 47.308 115.859 46.668 115.859 45.948C115.859 45.292 116.011 44.7 116.315 44.172C116.635 43.628 117.147 43.196 117.851 42.876C118.571 42.54 119.531 42.372 120.731 42.372H125.075V43.644H120.779C119.563 43.644 118.715 43.86 118.235 44.292C117.771 44.724 117.539 45.26 117.539 45.9C117.539 46.62 117.819 47.196 118.379 47.628C118.939 48.06 119.723 48.276 120.731 48.276C121.691 48.276 122.515 48.06 123.203 47.628C123.907 47.18 124.419 46.54 124.739 45.708L125.123 46.884C124.803 47.716 124.243 48.38 123.443 48.876C122.659 49.372 121.667 49.62 120.467 49.62ZM131.071 49.5V31.692H132.775V49.5H131.071ZM148.79 49.644C147.542 49.644 146.342 49.444 145.19 49.044C144.054 48.628 143.174 48.1 142.55 47.46L143.246 46.092C143.838 46.668 144.63 47.156 145.622 47.556C146.63 47.94 147.686 48.132 148.79 48.132C149.846 48.132 150.702 48.004 151.358 47.748C152.03 47.476 152.518 47.116 152.822 46.668C153.142 46.22 153.302 45.724 153.302 45.18C153.302 44.524 153.11 43.996 152.726 43.596C152.358 43.196 151.87 42.884 151.262 42.66C150.654 42.42 149.982 42.212 149.246 42.036C148.51 41.86 147.774 41.676 147.038 41.484C146.302 41.276 145.622 41.004 144.998 40.668C144.39 40.332 143.894 39.892 143.51 39.348C143.142 38.788 142.958 38.06 142.958 37.164C142.958 36.332 143.174 35.572 143.606 34.884C144.054 34.18 144.734 33.62 145.646 33.204C146.558 32.772 147.726 32.556 149.15 32.556C150.094 32.556 151.03 32.692 151.958 32.964C152.886 33.22 153.686 33.58 154.358 34.044L153.758 35.46C153.038 34.98 152.27 34.628 151.454 34.404C150.654 34.18 149.878 34.068 149.126 34.068C148.118 34.068 147.286 34.204 146.63 34.476C145.974 34.748 145.486 35.116 145.166 35.58C144.862 36.028 144.71 36.54 144.71 37.116C144.71 37.772 144.894 38.3 145.262 38.7C145.646 39.1 146.142 39.412 146.75 39.636C147.374 39.86 148.054 40.06 148.79 40.236C149.526 40.412 150.254 40.604 150.974 40.812C151.71 41.02 152.382 41.292 152.99 41.628C153.614 41.948 154.11 42.38 154.478 42.924C154.862 43.468 155.054 44.18 155.054 45.06C155.054 45.876 154.83 46.636 154.382 47.34C153.934 48.028 153.246 48.588 152.318 49.02C151.406 49.436 150.23 49.644 148.79 49.644ZM163.916 49.62C162.604 49.62 161.452 49.348 160.46 48.804C159.468 48.244 158.692 47.484 158.132 46.524C157.572 45.548 157.292 44.436 157.292 43.188C157.292 41.94 157.556 40.836 158.084 39.876C158.628 38.916 159.364 38.164 160.292 37.62C161.236 37.06 162.292 36.78 163.46 36.78C164.644 36.78 165.692 37.052 166.604 37.596C167.532 38.124 168.26 38.876 168.788 39.852C169.316 40.812 169.58 41.924 169.58 43.188C169.58 43.268 169.572 43.356 169.556 43.452C169.556 43.532 169.556 43.62 169.556 43.716H158.588V42.444H168.644L167.972 42.948C167.972 42.036 167.772 41.228 167.372 40.524C166.988 39.804 166.46 39.244 165.788 38.844C165.116 38.444 164.34 38.244 163.46 38.244C162.596 38.244 161.82 38.444 161.132 38.844C160.444 39.244 159.908 39.804 159.524 40.524C159.14 41.244 158.948 42.068 158.948 42.996V43.26C158.948 44.22 159.156 45.068 159.572 45.804C160.004 46.524 160.596 47.092 161.348 47.508C162.116 47.908 162.988 48.108 163.964 48.108C164.732 48.108 165.444 47.972 166.1 47.7C166.772 47.428 167.348 47.012 167.828 46.452L168.788 47.556C168.228 48.228 167.524 48.74 166.676 49.092C165.844 49.444 164.924 49.62 163.916 49.62ZM177.032 49.62C175.848 49.62 174.936 49.3 174.296 48.66C173.656 48.02 173.336 47.116 173.336 45.948V34.116H175.04V45.852C175.04 46.588 175.224 47.156 175.592 47.556C175.976 47.956 176.52 48.156 177.224 48.156C177.976 48.156 178.6 47.94 179.096 47.508L179.696 48.732C179.36 49.036 178.952 49.26 178.472 49.404C178.008 49.548 177.528 49.62 177.032 49.62ZM171.08 38.316V36.9H178.88V38.316H171.08ZM186.454 49.62C185.27 49.62 184.358 49.3 183.718 48.66C183.078 48.02 182.758 47.116 182.758 45.948V34.116H184.462V45.852C184.462 46.588 184.646 47.156 185.014 47.556C185.398 47.956 185.942 48.156 186.646 48.156C187.398 48.156 188.022 47.94 188.518 47.508L189.118 48.732C188.782 49.036 188.374 49.26 187.894 49.404C187.43 49.548 186.95 49.62 186.454 49.62ZM180.502 38.316V36.9H188.302V38.316H180.502ZM192.22 49.5V36.9H193.924V49.5H192.22ZM193.084 34.116C192.732 34.116 192.436 33.996 192.196 33.756C191.956 33.516 191.836 33.228 191.836 32.892C191.836 32.556 191.956 32.276 192.196 32.052C192.436 31.812 192.732 31.692 193.084 31.692C193.436 31.692 193.732 31.804 193.972 32.028C194.212 32.252 194.332 32.532 194.332 32.868C194.332 33.22 194.212 33.516 193.972 33.756C193.748 33.996 193.452 34.116 193.084 34.116ZM205.097 36.78C206.121 36.78 207.017 36.98 207.785 37.38C208.569 37.764 209.177 38.356 209.609 39.156C210.057 39.956 210.281 40.964 210.281 42.18V49.5H208.577V42.348C208.577 41.02 208.241 40.02 207.569 39.348C206.913 38.66 205.985 38.316 204.785 38.316C203.889 38.316 203.105 38.5 202.433 38.868C201.777 39.22 201.265 39.74 200.897 40.428C200.545 41.1 200.369 41.916 200.369 42.876V49.5H198.665V36.9H200.297V40.356L200.033 39.708C200.433 38.796 201.073 38.084 201.953 37.572C202.833 37.044 203.881 36.78 205.097 36.78ZM220.26 54.276C219.108 54.276 218.004 54.108 216.948 53.772C215.892 53.436 215.036 52.956 214.38 52.332L215.244 51.036C215.836 51.564 216.564 51.98 217.428 52.284C218.308 52.604 219.236 52.764 220.212 52.764C221.812 52.764 222.988 52.388 223.74 51.636C224.492 50.9 224.868 49.748 224.868 48.18V45.036L225.108 42.876L224.94 40.716V36.9H226.572V47.964C226.572 50.14 226.036 51.732 224.964 52.74C223.908 53.764 222.34 54.276 220.26 54.276ZM219.948 49.02C218.748 49.02 217.668 48.764 216.708 48.252C215.748 47.724 214.988 46.996 214.428 46.068C213.884 45.14 213.612 44.076 213.612 42.876C213.612 41.676 213.884 40.62 214.428 39.708C214.988 38.78 215.748 38.06 216.708 37.548C217.668 37.036 218.748 36.78 219.948 36.78C221.068 36.78 222.076 37.012 222.972 37.476C223.868 37.94 224.58 38.628 225.108 39.54C225.636 40.452 225.9 41.564 225.9 42.876C225.9 44.188 225.636 45.3 225.108 46.212C224.58 47.124 223.868 47.82 222.972 48.3C222.076 48.78 221.068 49.02 219.948 49.02ZM220.116 47.508C221.044 47.508 221.868 47.316 222.588 46.932C223.308 46.532 223.876 45.988 224.292 45.3C224.708 44.596 224.916 43.788 224.916 42.876C224.916 41.964 224.708 41.164 224.292 40.476C223.876 39.788 223.308 39.252 222.588 38.868C221.868 38.468 221.044 38.268 220.116 38.268C219.204 38.268 218.38 38.468 217.644 38.868C216.924 39.252 216.356 39.788 215.94 40.476C215.54 41.164 215.34 41.964 215.34 42.876C215.34 43.788 215.54 44.596 215.94 45.3C216.356 45.988 216.924 46.532 217.644 46.932C218.38 47.316 219.204 47.508 220.116 47.508Z" fill="white"/>
</svg>
