<svg width="236" height="90" viewBox="0 0 236 90" fill="none" xmlns="http://www.w3.org/2000/svg">
<rect width="236" height="90" rx="12" fill="#BEDEDF"/>
<rect x="16" y="20" width="50" height="50" rx="25" fill="#F3FFFF"/>
<mask id="mask0_913_4768" style="mask-type:alpha" maskUnits="userSpaceOnUse" x="29" y="33" width="24" height="24">
<rect x="29" y="33" width="24" height="24" fill="#D9D9D9"/>
</mask>
<g mask="url(#mask0_913_4768)">
<path d="M40.8752 53C40.9419 53 41.0086 52.9833 41.0752 52.95C41.1419 52.9167 41.1919 52.8833 41.2252 52.85L49.4252 44.65C49.6252 44.45 49.7711 44.225 49.8627 43.975C49.9544 43.725 50.0002 43.475 50.0002 43.225C50.0002 42.9583 49.9544 42.7042 49.8627 42.4625C49.7711 42.2208 49.6252 42.0083 49.4252 41.825L45.1752 37.575C44.9919 37.375 44.7794 37.2292 44.5377 37.1375C44.2961 37.0458 44.0419 37 43.7752 37C43.5252 37 43.2752 37.0458 43.0252 37.1375C42.7752 37.2292 42.5502 37.375 42.3502 37.575L42.0752 37.85L43.9252 39.725C44.1752 39.9583 44.3586 40.225 44.4752 40.525C44.5919 40.825 44.6502 41.1417 44.6502 41.475C44.6502 42.175 44.4127 42.7625 43.9377 43.2375C43.4627 43.7125 42.8752 43.95 42.1752 43.95C41.8419 43.95 41.5211 43.8917 41.2127 43.775C40.9044 43.6583 40.6336 43.4833 40.4002 43.25L38.5252 41.4L34.1502 45.775C34.1002 45.825 34.0627 45.8792 34.0377 45.9375C34.0127 45.9958 34.0002 46.0583 34.0002 46.125C34.0002 46.2583 34.0502 46.3792 34.1502 46.4875C34.2502 46.5958 34.3669 46.65 34.5002 46.65C34.5669 46.65 34.6336 46.6333 34.7002 46.6C34.7669 46.5667 34.8169 46.5333 34.8502 46.5L38.2502 43.1L39.6502 44.5L36.2752 47.9C36.2252 47.95 36.1877 48.0042 36.1627 48.0625C36.1377 48.1208 36.1252 48.1833 36.1252 48.25C36.1252 48.3833 36.1752 48.5 36.2752 48.6C36.3752 48.7 36.4919 48.75 36.6252 48.75C36.6919 48.75 36.7586 48.7333 36.8252 48.7C36.8919 48.6667 36.9419 48.6333 36.9752 48.6L40.3752 45.225L41.7752 46.625L38.4002 50.025C38.3502 50.0583 38.3127 50.1083 38.2877 50.175C38.2627 50.2417 38.2502 50.3083 38.2502 50.375C38.2502 50.5083 38.3002 50.625 38.4002 50.725C38.5002 50.825 38.6169 50.875 38.7502 50.875C38.8169 50.875 38.8794 50.8625 38.9377 50.8375C38.9961 50.8125 39.0502 50.775 39.1002 50.725L42.5002 47.35L43.9002 48.75L40.5002 52.15C40.4502 52.2 40.4127 52.2542 40.3877 52.3125C40.3627 52.3708 40.3502 52.4333 40.3502 52.5C40.3502 52.6333 40.4044 52.75 40.5127 52.85C40.6211 52.95 40.7419 53 40.8752 53ZM40.8502 55C40.2336 55 39.6877 54.7958 39.2127 54.3875C38.7377 53.9792 38.4586 53.4667 38.3752 52.85C37.8086 52.7667 37.3336 52.5333 36.9502 52.15C36.5669 51.7667 36.3336 51.2917 36.2502 50.725C35.6836 50.6417 35.2127 50.4042 34.8377 50.0125C34.4627 49.6208 34.2336 49.15 34.1502 48.6C33.5169 48.5167 33.0002 48.2417 32.6002 47.775C32.2002 47.3083 32.0002 46.7583 32.0002 46.125C32.0002 45.7917 32.0627 45.4708 32.1877 45.1625C32.3127 44.8542 32.4919 44.5833 32.7252 44.35L38.5252 38.575L41.8002 41.85C41.8336 41.9 41.8836 41.9375 41.9502 41.9625C42.0169 41.9875 42.0836 42 42.1502 42C42.3002 42 42.4252 41.9542 42.5252 41.8625C42.6252 41.7708 42.6752 41.65 42.6752 41.5C42.6752 41.4333 42.6627 41.3667 42.6377 41.3C42.6127 41.2333 42.5752 41.1833 42.5252 41.15L38.9502 37.575C38.7669 37.375 38.5544 37.2292 38.3127 37.1375C38.0711 37.0458 37.8169 37 37.5502 37C37.3002 37 37.0502 37.0458 36.8002 37.1375C36.5502 37.2292 36.3252 37.375 36.1252 37.575L32.6002 41.125C32.4502 41.275 32.3252 41.45 32.2252 41.65C32.1252 41.85 32.0586 42.05 32.0252 42.25C31.9919 42.45 31.9919 42.6542 32.0252 42.8625C32.0586 43.0708 32.1252 43.2667 32.2252 43.45L30.7752 44.9C30.4919 44.5167 30.2836 44.0958 30.1502 43.6375C30.0169 43.1792 29.9669 42.7167 30.0002 42.25C30.0336 41.7833 30.1502 41.3292 30.3502 40.8875C30.5502 40.4458 30.8252 40.05 31.1752 39.7L34.7002 36.175C35.1002 35.7917 35.5461 35.5 36.0377 35.3C36.5294 35.1 37.0336 35 37.5502 35C38.0669 35 38.5711 35.1 39.0627 35.3C39.5544 35.5 39.9919 35.7917 40.3752 36.175L40.6502 36.45L40.9252 36.175C41.3252 35.7917 41.7711 35.5 42.2627 35.3C42.7544 35.1 43.2586 35 43.7752 35C44.2919 35 44.7961 35.1 45.2877 35.3C45.7794 35.5 46.2169 35.7917 46.6002 36.175L50.8252 40.4C51.2086 40.7833 51.5002 41.225 51.7002 41.725C51.9002 42.225 52.0002 42.7333 52.0002 43.25C52.0002 43.7667 51.9002 44.2708 51.7002 44.7625C51.5002 45.2542 51.2086 45.6917 50.8252 46.075L42.6252 54.25C42.3919 54.4833 42.1211 54.6667 41.8127 54.8C41.5044 54.9333 41.1836 55 40.8502 55Z" fill="#1C1B1F"/>
</g>
<path d="M83.736 39V22.2H85.2L92.88 35.304H92.112L99.72 22.2H101.184V39H99.48V24.864H99.888L92.88 36.864H92.04L84.984 24.864H85.44V39H83.736ZM111.65 39.12C110.338 39.12 109.186 38.848 108.194 38.304C107.202 37.744 106.426 36.984 105.866 36.024C105.306 35.048 105.026 33.936 105.026 32.688C105.026 31.44 105.29 30.336 105.818 29.376C106.362 28.416 107.098 27.664 108.026 27.12C108.97 26.56 110.026 26.28 111.194 26.28C112.378 26.28 113.426 26.552 114.338 27.096C115.266 27.624 115.994 28.376 116.522 29.352C117.05 30.312 117.314 31.424 117.314 32.688C117.314 32.768 117.306 32.856 117.29 32.952C117.29 33.032 117.29 33.12 117.29 33.216H106.322V31.944H116.378L115.706 32.448C115.706 31.536 115.506 30.728 115.106 30.024C114.722 29.304 114.194 28.744 113.522 28.344C112.85 27.944 112.074 27.744 111.194 27.744C110.33 27.744 109.554 27.944 108.866 28.344C108.178 28.744 107.642 29.304 107.258 30.024C106.874 30.744 106.682 31.568 106.682 32.496V32.76C106.682 33.72 106.89 34.568 107.306 35.304C107.738 36.024 108.33 36.592 109.082 37.008C109.85 37.408 110.722 37.608 111.698 37.608C112.466 37.608 113.178 37.472 113.834 37.2C114.506 36.928 115.082 36.512 115.562 35.952L116.522 37.056C115.962 37.728 115.258 38.24 114.41 38.592C113.578 38.944 112.658 39.12 111.65 39.12ZM126.134 39.12C124.822 39.12 123.67 38.848 122.678 38.304C121.686 37.744 120.91 36.984 120.35 36.024C119.79 35.048 119.51 33.936 119.51 32.688C119.51 31.44 119.774 30.336 120.302 29.376C120.846 28.416 121.582 27.664 122.51 27.12C123.454 26.56 124.51 26.28 125.678 26.28C126.862 26.28 127.91 26.552 128.822 27.096C129.75 27.624 130.478 28.376 131.006 29.352C131.534 30.312 131.798 31.424 131.798 32.688C131.798 32.768 131.79 32.856 131.774 32.952C131.774 33.032 131.774 33.12 131.774 33.216H120.806V31.944H130.862L130.19 32.448C130.19 31.536 129.99 30.728 129.59 30.024C129.206 29.304 128.678 28.744 128.006 28.344C127.334 27.944 126.558 27.744 125.678 27.744C124.814 27.744 124.038 27.944 123.35 28.344C122.662 28.744 122.126 29.304 121.742 30.024C121.358 30.744 121.166 31.568 121.166 32.496V32.76C121.166 33.72 121.374 34.568 121.79 35.304C122.222 36.024 122.814 36.592 123.566 37.008C124.334 37.408 125.206 37.608 126.182 37.608C126.95 37.608 127.662 37.472 128.318 37.2C128.99 36.928 129.566 36.512 130.046 35.952L131.006 37.056C130.446 37.728 129.742 38.24 128.894 38.592C128.062 38.944 127.142 39.12 126.134 39.12ZM139.251 39.12C138.067 39.12 137.155 38.8 136.515 38.16C135.875 37.52 135.555 36.616 135.555 35.448V23.616H137.259V35.352C137.259 36.088 137.443 36.656 137.811 37.056C138.195 37.456 138.739 37.656 139.443 37.656C140.195 37.656 140.819 37.44 141.315 37.008L141.915 38.232C141.579 38.536 141.171 38.76 140.691 38.904C140.227 39.048 139.747 39.12 139.251 39.12ZM133.299 27.816V26.4H141.099V27.816H133.299ZM151.394 43.776C150.802 43.776 150.234 43.68 149.69 43.488C149.162 43.296 148.706 43.008 148.322 42.624L149.114 41.352C149.434 41.656 149.778 41.888 150.146 42.048C150.53 42.224 150.954 42.312 151.418 42.312C151.978 42.312 152.458 42.152 152.858 41.832C153.274 41.528 153.666 40.984 154.034 40.2L154.85 38.352L155.042 38.088L160.226 26.4H161.906L155.594 40.512C155.242 41.328 154.85 41.976 154.418 42.456C154.002 42.936 153.546 43.272 153.05 43.464C152.554 43.672 152.002 43.776 151.394 43.776ZM154.754 39.36L148.946 26.4H150.722L155.858 37.968L154.754 39.36ZM169.09 39.12C167.874 39.12 166.778 38.848 165.802 38.304C164.842 37.744 164.082 36.984 163.522 36.024C162.962 35.048 162.682 33.936 162.682 32.688C162.682 31.424 162.962 30.312 163.522 29.352C164.082 28.392 164.842 27.64 165.802 27.096C166.762 26.552 167.858 26.28 169.09 26.28C170.338 26.28 171.442 26.552 172.402 27.096C173.378 27.64 174.138 28.392 174.682 29.352C175.242 30.312 175.522 31.424 175.522 32.688C175.522 33.936 175.242 35.048 174.682 36.024C174.138 36.984 173.378 37.744 172.402 38.304C171.426 38.848 170.322 39.12 169.09 39.12ZM169.09 37.608C170.002 37.608 170.81 37.408 171.514 37.008C172.218 36.592 172.77 36.016 173.17 35.28C173.586 34.528 173.794 33.664 173.794 32.688C173.794 31.696 173.586 30.832 173.17 30.096C172.77 29.36 172.218 28.792 171.514 28.392C170.81 27.976 170.01 27.768 169.114 27.768C168.218 27.768 167.418 27.976 166.714 28.392C166.01 28.792 165.45 29.36 165.034 30.096C164.618 30.832 164.41 31.696 164.41 32.688C164.41 33.664 164.618 34.528 165.034 35.28C165.45 36.016 166.01 36.592 166.714 37.008C167.418 37.408 168.21 37.608 169.09 37.608ZM184.209 39.12C183.137 39.12 182.201 38.92 181.401 38.52C180.601 38.12 179.977 37.52 179.529 36.72C179.097 35.92 178.881 34.92 178.881 33.72V26.4H180.585V33.528C180.585 34.872 180.913 35.888 181.569 36.576C182.241 37.248 183.177 37.584 184.377 37.584C185.257 37.584 186.017 37.408 186.657 37.056C187.313 36.688 187.809 36.16 188.145 35.472C188.497 34.784 188.673 33.96 188.673 33V26.4H190.377V39H188.745V35.544L189.009 36.168C188.609 37.096 187.985 37.824 187.137 38.352C186.305 38.864 185.329 39.12 184.209 39.12ZM195.126 39V26.4H196.758V29.832L196.59 29.232C196.942 28.272 197.534 27.544 198.366 27.048C199.198 26.536 200.23 26.28 201.462 26.28V27.936C201.398 27.936 201.334 27.936 201.27 27.936C201.206 27.92 201.142 27.912 201.078 27.912C199.75 27.912 198.71 28.32 197.958 29.136C197.206 29.936 196.83 31.08 196.83 32.568V39H195.126ZM99.12 55.28C100.144 55.28 101.032 55.48 101.784 55.88C102.552 56.264 103.144 56.856 103.56 57.656C103.992 58.456 104.208 59.464 104.208 60.68V68H102.504V60.848C102.504 59.52 102.184 58.52 101.544 57.848C100.92 57.16 100.032 56.816 98.88 56.816C98.016 56.816 97.264 57 96.624 57.368C96 57.72 95.512 58.24 95.16 58.928C94.824 59.6 94.656 60.416 94.656 61.376V68H92.952V60.848C92.952 59.52 92.632 58.52 91.992 57.848C91.352 57.16 90.456 56.816 89.304 56.816C88.456 56.816 87.712 57 87.072 57.368C86.432 57.72 85.936 58.24 85.584 58.928C85.248 59.6 85.08 60.416 85.08 61.376V68H83.376V55.4H85.008V58.808L84.744 58.208C85.128 57.296 85.744 56.584 86.592 56.072C87.456 55.544 88.472 55.28 89.64 55.28C90.872 55.28 91.92 55.592 92.784 56.216C93.648 56.824 94.208 57.744 94.464 58.976L93.792 58.712C94.16 57.688 94.808 56.864 95.736 56.24C96.68 55.6 97.808 55.28 99.12 55.28ZM114.181 68.12C112.869 68.12 111.717 67.848 110.725 67.304C109.733 66.744 108.957 65.984 108.397 65.024C107.837 64.048 107.557 62.936 107.557 61.688C107.557 60.44 107.821 59.336 108.349 58.376C108.893 57.416 109.629 56.664 110.557 56.12C111.501 55.56 112.557 55.28 113.725 55.28C114.909 55.28 115.957 55.552 116.869 56.096C117.797 56.624 118.525 57.376 119.053 58.352C119.581 59.312 119.845 60.424 119.845 61.688C119.845 61.768 119.837 61.856 119.821 61.952C119.821 62.032 119.821 62.12 119.821 62.216H108.853V60.944H118.909L118.237 61.448C118.237 60.536 118.037 59.728 117.637 59.024C117.253 58.304 116.725 57.744 116.053 57.344C115.381 56.944 114.605 56.744 113.725 56.744C112.861 56.744 112.085 56.944 111.397 57.344C110.709 57.744 110.173 58.304 109.789 59.024C109.405 59.744 109.213 60.568 109.213 61.496V61.76C109.213 62.72 109.421 63.568 109.837 64.304C110.269 65.024 110.861 65.592 111.613 66.008C112.381 66.408 113.253 66.608 114.229 66.608C114.997 66.608 115.709 66.472 116.365 66.2C117.037 65.928 117.613 65.512 118.093 64.952L119.053 66.056C118.493 66.728 117.789 67.24 116.941 67.592C116.109 67.944 115.189 68.12 114.181 68.12ZM129.746 55.28C130.77 55.28 131.666 55.48 132.434 55.88C133.218 56.264 133.826 56.856 134.258 57.656C134.706 58.456 134.93 59.464 134.93 60.68V68H133.226V60.848C133.226 59.52 132.89 58.52 132.218 57.848C131.562 57.16 130.634 56.816 129.434 56.816C128.538 56.816 127.754 57 127.082 57.368C126.426 57.72 125.914 58.24 125.546 58.928C125.194 59.6 125.018 60.416 125.018 61.376V68H123.314V55.4H124.946V58.856L124.682 58.208C125.082 57.296 125.722 56.584 126.602 56.072C127.482 55.544 128.53 55.28 129.746 55.28ZM143.516 68.12C142.332 68.12 141.42 67.8 140.78 67.16C140.14 66.52 139.82 65.616 139.82 64.448V52.616H141.524V64.352C141.524 65.088 141.708 65.656 142.076 66.056C142.46 66.456 143.004 66.656 143.708 66.656C144.46 66.656 145.084 66.44 145.58 66.008L146.18 67.232C145.844 67.536 145.436 67.76 144.956 67.904C144.492 68.048 144.012 68.12 143.516 68.12ZM137.564 56.816V55.4H145.364V56.816H137.564ZM153.973 68.12C152.757 68.12 151.661 67.848 150.685 67.304C149.725 66.744 148.965 65.984 148.405 65.024C147.845 64.048 147.565 62.936 147.565 61.688C147.565 60.424 147.845 59.312 148.405 58.352C148.965 57.392 149.725 56.64 150.685 56.096C151.645 55.552 152.741 55.28 153.973 55.28C155.221 55.28 156.325 55.552 157.285 56.096C158.261 56.64 159.021 57.392 159.565 58.352C160.125 59.312 160.405 60.424 160.405 61.688C160.405 62.936 160.125 64.048 159.565 65.024C159.021 65.984 158.261 66.744 157.285 67.304C156.309 67.848 155.205 68.12 153.973 68.12ZM153.973 66.608C154.885 66.608 155.693 66.408 156.397 66.008C157.101 65.592 157.653 65.016 158.053 64.28C158.469 63.528 158.677 62.664 158.677 61.688C158.677 60.696 158.469 59.832 158.053 59.096C157.653 58.36 157.101 57.792 156.397 57.392C155.693 56.976 154.893 56.768 153.997 56.768C153.101 56.768 152.301 56.976 151.597 57.392C150.893 57.792 150.333 58.36 149.917 59.096C149.501 59.832 149.293 60.696 149.293 61.688C149.293 62.664 149.501 63.528 149.917 64.28C150.333 65.016 150.893 65.592 151.597 66.008C152.301 66.408 153.093 66.608 153.973 66.608ZM163.884 68V55.4H165.516V58.832L165.348 58.232C165.7 57.272 166.292 56.544 167.124 56.048C167.956 55.536 168.988 55.28 170.22 55.28V56.936C170.156 56.936 170.092 56.936 170.028 56.936C169.964 56.92 169.9 56.912 169.836 56.912C168.508 56.912 167.468 57.32 166.716 58.136C165.964 58.936 165.588 60.08 165.588 61.568V68H163.884Z" fill="white"/>
</svg>
