<svg width="246" height="90" viewBox="0 0 246 90" fill="none" xmlns="http://www.w3.org/2000/svg">
<rect width="246" height="90" rx="12" fill="#95A5B8"/>
<rect x="16" y="20" width="50" height="50" rx="25" fill="#EDF5FF"/>
<mask id="mask0_913_4772" style="mask-type:alpha" maskUnits="userSpaceOnUse" x="29" y="33" width="24" height="24">
<rect x="29" y="33" width="24" height="24" fill="#D9D9D9"/>
</mask>
<g mask="url(#mask0_913_4772)">
<path d="M29 53V51H31V36H51V51H53V53H29ZM39 51H43V50H39V51ZM33 48H49V38H33V48Z" fill="#1C1B1F"/>
</g>
<path d="M87 39V23.736H81.096V22.2H94.68V23.736H88.776V39H87ZM104.35 39V36.216L104.278 35.76V31.104C104.278 30.032 103.974 29.208 103.366 28.632C102.774 28.056 101.886 27.768 100.702 27.768C99.8861 27.768 99.1101 27.904 98.3741 28.176C97.6381 28.448 97.0141 28.808 96.5021 29.256L95.7341 27.984C96.3741 27.44 97.1421 27.024 98.0381 26.736C98.9341 26.432 99.8781 26.28 100.87 26.28C102.502 26.28 103.758 26.688 104.638 27.504C105.534 28.304 105.982 29.528 105.982 31.176V39H104.35ZM100.006 39.12C99.0621 39.12 98.2381 38.968 97.5341 38.664C96.8461 38.344 96.3181 37.912 95.9501 37.368C95.5821 36.808 95.3981 36.168 95.3981 35.448C95.3981 34.792 95.5501 34.2 95.8541 33.672C96.1741 33.128 96.6861 32.696 97.3901 32.376C98.1101 32.04 99.0701 31.872 100.27 31.872H104.614V33.144H100.318C99.1021 33.144 98.2541 33.36 97.7741 33.792C97.3101 34.224 97.0781 34.76 97.0781 35.4C97.0781 36.12 97.3581 36.696 97.9181 37.128C98.4781 37.56 99.2621 37.776 100.27 37.776C101.23 37.776 102.054 37.56 102.742 37.128C103.446 36.68 103.958 36.04 104.278 35.208L104.662 36.384C104.342 37.216 103.782 37.88 102.982 38.376C102.198 38.872 101.206 39.12 100.006 39.12ZM110.61 39V26.4H112.314V39H110.61ZM111.474 23.616C111.122 23.616 110.826 23.496 110.586 23.256C110.346 23.016 110.226 22.728 110.226 22.392C110.226 22.056 110.346 21.776 110.586 21.552C110.826 21.312 111.122 21.192 111.474 21.192C111.826 21.192 112.122 21.304 112.362 21.528C112.602 21.752 112.722 22.032 112.722 22.368C112.722 22.72 112.602 23.016 112.362 23.256C112.138 23.496 111.842 23.616 111.474 23.616ZM117.056 39V21.192H118.76V39H117.056ZM128.637 39.12C127.421 39.12 126.325 38.848 125.349 38.304C124.389 37.744 123.629 36.984 123.069 36.024C122.509 35.048 122.229 33.936 122.229 32.688C122.229 31.424 122.509 30.312 123.069 29.352C123.629 28.392 124.389 27.64 125.349 27.096C126.309 26.552 127.405 26.28 128.637 26.28C129.885 26.28 130.989 26.552 131.949 27.096C132.925 27.64 133.685 28.392 134.229 29.352C134.789 30.312 135.069 31.424 135.069 32.688C135.069 33.936 134.789 35.048 134.229 36.024C133.685 36.984 132.925 37.744 131.949 38.304C130.973 38.848 129.869 39.12 128.637 39.12ZM128.637 37.608C129.549 37.608 130.357 37.408 131.061 37.008C131.765 36.592 132.317 36.016 132.717 35.28C133.133 34.528 133.341 33.664 133.341 32.688C133.341 31.696 133.133 30.832 132.717 30.096C132.317 29.36 131.765 28.792 131.061 28.392C130.357 27.976 129.557 27.768 128.661 27.768C127.765 27.768 126.965 27.976 126.261 28.392C125.557 28.792 124.997 29.36 124.581 30.096C124.165 30.832 123.957 31.696 123.957 32.688C123.957 33.664 124.165 34.528 124.581 35.28C124.997 36.016 125.557 36.592 126.261 37.008C126.965 37.408 127.757 37.608 128.637 37.608ZM138.548 39V26.4H140.18V29.832L140.012 29.232C140.364 28.272 140.956 27.544 141.788 27.048C142.62 26.536 143.652 26.28 144.884 26.28V27.936C144.82 27.936 144.756 27.936 144.692 27.936C144.628 27.92 144.564 27.912 144.5 27.912C143.172 27.912 142.132 28.32 141.38 29.136C140.628 29.936 140.252 31.08 140.252 32.568V39H138.548ZM153.228 39.12C151.916 39.12 150.764 38.848 149.772 38.304C148.78 37.744 148.004 36.984 147.444 36.024C146.884 35.048 146.604 33.936 146.604 32.688C146.604 31.44 146.868 30.336 147.396 29.376C147.94 28.416 148.676 27.664 149.604 27.12C150.548 26.56 151.604 26.28 152.772 26.28C153.956 26.28 155.004 26.552 155.916 27.096C156.844 27.624 157.572 28.376 158.1 29.352C158.628 30.312 158.892 31.424 158.892 32.688C158.892 32.768 158.884 32.856 158.868 32.952C158.868 33.032 158.868 33.12 158.868 33.216H147.9V31.944H157.956L157.284 32.448C157.284 31.536 157.084 30.728 156.684 30.024C156.3 29.304 155.772 28.744 155.1 28.344C154.428 27.944 153.652 27.744 152.772 27.744C151.908 27.744 151.132 27.944 150.444 28.344C149.756 28.744 149.22 29.304 148.836 30.024C148.452 30.744 148.26 31.568 148.26 32.496V32.76C148.26 33.72 148.468 34.568 148.884 35.304C149.316 36.024 149.908 36.592 150.66 37.008C151.428 37.408 152.3 37.608 153.276 37.608C154.044 37.608 154.756 37.472 155.412 37.2C156.084 36.928 156.66 36.512 157.14 35.952L158.1 37.056C157.54 37.728 156.836 38.24 155.988 38.592C155.156 38.944 154.236 39.12 153.228 39.12ZM167.376 39.12C166.176 39.12 165.096 38.848 164.136 38.304C163.192 37.76 162.448 37.008 161.904 36.048C161.36 35.072 161.088 33.952 161.088 32.688C161.088 31.408 161.36 30.288 161.904 29.328C162.448 28.368 163.192 27.624 164.136 27.096C165.096 26.552 166.176 26.28 167.376 26.28C168.48 26.28 169.464 26.528 170.328 27.024C171.208 27.52 171.904 28.248 172.416 29.208C172.944 30.152 173.208 31.312 173.208 32.688C173.208 34.048 172.952 35.208 172.44 36.168C171.928 37.128 171.232 37.864 170.352 38.376C169.488 38.872 168.496 39.12 167.376 39.12ZM167.496 37.608C168.392 37.608 169.192 37.408 169.896 37.008C170.616 36.592 171.176 36.016 171.576 35.28C171.992 34.528 172.2 33.664 172.2 32.688C172.2 31.696 171.992 30.832 171.576 30.096C171.176 29.36 170.616 28.792 169.896 28.392C169.192 27.976 168.392 27.768 167.496 27.768C166.616 27.768 165.824 27.976 165.12 28.392C164.416 28.792 163.856 29.36 163.44 30.096C163.024 30.832 162.816 31.696 162.816 32.688C162.816 33.664 163.024 34.528 163.44 35.28C163.856 36.016 164.416 36.592 165.12 37.008C165.824 37.408 166.616 37.608 167.496 37.608ZM172.248 39V35.208L172.416 32.664L172.176 30.12V21.192H173.88V39H172.248ZM83.736 68V51.2H85.2L92.88 64.304H92.112L99.72 51.2H101.184V68H99.48V53.864H99.888L92.88 65.864H92.04L84.984 53.864H85.44V68H83.736ZM111.65 68.12C110.338 68.12 109.186 67.848 108.194 67.304C107.202 66.744 106.426 65.984 105.866 65.024C105.306 64.048 105.026 62.936 105.026 61.688C105.026 60.44 105.29 59.336 105.818 58.376C106.362 57.416 107.098 56.664 108.026 56.12C108.97 55.56 110.026 55.28 111.194 55.28C112.378 55.28 113.426 55.552 114.338 56.096C115.266 56.624 115.994 57.376 116.522 58.352C117.05 59.312 117.314 60.424 117.314 61.688C117.314 61.768 117.306 61.856 117.29 61.952C117.29 62.032 117.29 62.12 117.29 62.216H106.322V60.944H116.378L115.706 61.448C115.706 60.536 115.506 59.728 115.106 59.024C114.722 58.304 114.194 57.744 113.522 57.344C112.85 56.944 112.074 56.744 111.194 56.744C110.33 56.744 109.554 56.944 108.866 57.344C108.178 57.744 107.642 58.304 107.258 59.024C106.874 59.744 106.682 60.568 106.682 61.496V61.76C106.682 62.72 106.89 63.568 107.306 64.304C107.738 65.024 108.33 65.592 109.082 66.008C109.85 66.408 110.722 66.608 111.698 66.608C112.466 66.608 113.178 66.472 113.834 66.2C114.506 65.928 115.082 65.512 115.562 64.952L116.522 66.056C115.962 66.728 115.258 67.24 114.41 67.592C113.578 67.944 112.658 68.12 111.65 68.12ZM127.214 55.28C128.238 55.28 129.134 55.48 129.902 55.88C130.686 56.264 131.294 56.856 131.726 57.656C132.174 58.456 132.398 59.464 132.398 60.68V68H130.694V60.848C130.694 59.52 130.358 58.52 129.686 57.848C129.03 57.16 128.102 56.816 126.902 56.816C126.006 56.816 125.222 57 124.55 57.368C123.894 57.72 123.382 58.24 123.014 58.928C122.662 59.6 122.486 60.416 122.486 61.376V68H120.782V55.4H122.414V58.856L122.15 58.208C122.55 57.296 123.19 56.584 124.07 56.072C124.95 55.544 125.998 55.28 127.214 55.28ZM140.985 68.12C139.801 68.12 138.889 67.8 138.249 67.16C137.609 66.52 137.289 65.616 137.289 64.448V52.616H138.993V64.352C138.993 65.088 139.177 65.656 139.545 66.056C139.929 66.456 140.473 66.656 141.177 66.656C141.929 66.656 142.553 66.44 143.049 66.008L143.649 67.232C143.313 67.536 142.905 67.76 142.425 67.904C141.961 68.048 141.481 68.12 140.985 68.12ZM135.033 56.816V55.4H142.833V56.816H135.033ZM151.442 68.12C150.226 68.12 149.13 67.848 148.154 67.304C147.194 66.744 146.434 65.984 145.874 65.024C145.314 64.048 145.034 62.936 145.034 61.688C145.034 60.424 145.314 59.312 145.874 58.352C146.434 57.392 147.194 56.64 148.154 56.096C149.114 55.552 150.21 55.28 151.442 55.28C152.69 55.28 153.794 55.552 154.754 56.096C155.73 56.64 156.49 57.392 157.034 58.352C157.594 59.312 157.874 60.424 157.874 61.688C157.874 62.936 157.594 64.048 157.034 65.024C156.49 65.984 155.73 66.744 154.754 67.304C153.778 67.848 152.674 68.12 151.442 68.12ZM151.442 66.608C152.354 66.608 153.162 66.408 153.866 66.008C154.57 65.592 155.122 65.016 155.522 64.28C155.938 63.528 156.146 62.664 156.146 61.688C156.146 60.696 155.938 59.832 155.522 59.096C155.122 58.36 154.57 57.792 153.866 57.392C153.162 56.976 152.362 56.768 151.466 56.768C150.57 56.768 149.77 56.976 149.066 57.392C148.362 57.792 147.802 58.36 147.386 59.096C146.97 59.832 146.762 60.696 146.762 61.688C146.762 62.664 146.97 63.528 147.386 64.28C147.802 65.016 148.362 65.592 149.066 66.008C149.77 66.408 150.562 66.608 151.442 66.608ZM161.353 68V55.4H162.985V58.832L162.817 58.232C163.169 57.272 163.761 56.544 164.593 56.048C165.425 55.536 166.457 55.28 167.689 55.28V56.936C167.625 56.936 167.561 56.936 167.497 56.936C167.433 56.92 167.369 56.912 167.305 56.912C165.977 56.912 164.937 57.32 164.185 58.136C163.433 58.936 163.057 60.08 163.057 61.568V68H161.353ZM174.323 68.12C173.283 68.12 172.299 67.976 171.371 67.688C170.443 67.384 169.715 67.008 169.187 66.56L169.955 65.216C170.467 65.6 171.123 65.936 171.923 66.224C172.723 66.496 173.563 66.632 174.443 66.632C175.643 66.632 176.507 66.448 177.035 66.08C177.563 65.696 177.827 65.192 177.827 64.568C177.827 64.104 177.675 63.744 177.371 63.488C177.083 63.216 176.699 63.016 176.219 62.888C175.739 62.744 175.203 62.624 174.611 62.528C174.019 62.432 173.427 62.32 172.835 62.192C172.259 62.064 171.731 61.88 171.251 61.64C170.771 61.384 170.379 61.04 170.075 60.608C169.787 60.176 169.643 59.6 169.643 58.88C169.643 58.192 169.835 57.576 170.219 57.032C170.603 56.488 171.163 56.064 171.899 55.76C172.651 55.44 173.563 55.28 174.635 55.28C175.451 55.28 176.267 55.392 177.083 55.616C177.899 55.824 178.571 56.104 179.099 56.456L178.355 57.824C177.795 57.44 177.195 57.168 176.555 57.008C175.915 56.832 175.275 56.744 174.635 56.744C173.499 56.744 172.659 56.944 172.115 57.344C171.587 57.728 171.323 58.224 171.323 58.832C171.323 59.312 171.467 59.688 171.755 59.96C172.059 60.232 172.451 60.448 172.931 60.608C173.427 60.752 173.963 60.872 174.539 60.968C175.131 61.064 175.715 61.184 176.291 61.328C176.883 61.456 177.419 61.64 177.899 61.88C178.395 62.104 178.787 62.432 179.075 62.864C179.379 63.28 179.531 63.832 179.531 64.52C179.531 65.256 179.323 65.896 178.907 66.44C178.507 66.968 177.915 67.384 177.131 67.688C176.363 67.976 175.427 68.12 174.323 68.12ZM189.089 55.28C190.113 55.28 191.009 55.48 191.777 55.88C192.561 56.264 193.169 56.856 193.601 57.656C194.049 58.456 194.273 59.464 194.273 60.68V68H192.569V60.848C192.569 59.52 192.233 58.52 191.561 57.848C190.905 57.16 189.977 56.816 188.777 56.816C187.881 56.816 187.097 57 186.425 57.368C185.769 57.72 185.257 58.24 184.889 58.928C184.537 59.6 184.361 60.416 184.361 61.376V68H182.657V50.192H184.361V58.856L184.025 58.208C184.425 57.296 185.065 56.584 185.945 56.072C186.825 55.544 187.873 55.28 189.089 55.28ZM198.876 68V55.4H200.58V68H198.876ZM199.74 52.616C199.388 52.616 199.092 52.496 198.852 52.256C198.612 52.016 198.492 51.728 198.492 51.392C198.492 51.056 198.612 50.776 198.852 50.552C199.092 50.312 199.388 50.192 199.74 50.192C200.092 50.192 200.388 50.304 200.628 50.528C200.868 50.752 200.988 51.032 200.988 51.368C200.988 51.72 200.868 52.016 200.628 52.256C200.404 52.496 200.108 52.616 199.74 52.616ZM211.825 68.12C210.737 68.12 209.753 67.872 208.873 67.376C207.993 66.864 207.289 66.136 206.761 65.192C206.249 64.232 205.993 63.064 205.993 61.688C205.993 60.312 206.249 59.152 206.761 58.208C207.273 57.248 207.969 56.52 208.849 56.024C209.729 55.528 210.721 55.28 211.825 55.28C213.025 55.28 214.097 55.552 215.041 56.096C216.001 56.624 216.753 57.376 217.297 58.352C217.841 59.312 218.113 60.424 218.113 61.688C218.113 62.968 217.841 64.088 217.297 65.048C216.753 66.008 216.001 66.76 215.041 67.304C214.097 67.848 213.025 68.12 211.825 68.12ZM205.321 72.656V55.4H206.953V59.192L206.785 61.712L207.025 64.256V72.656H205.321ZM211.705 66.608C212.601 66.608 213.401 66.408 214.105 66.008C214.809 65.592 215.369 65.016 215.785 64.28C216.201 63.528 216.409 62.664 216.409 61.688C216.409 60.712 216.201 59.856 215.785 59.12C215.369 58.384 214.809 57.808 214.105 57.392C213.401 56.976 212.601 56.768 211.705 56.768C210.809 56.768 210.001 56.976 209.281 57.392C208.577 57.808 208.017 58.384 207.601 59.12C207.201 59.856 207.001 60.712 207.001 61.688C207.001 62.664 207.201 63.528 207.601 64.28C208.017 65.016 208.577 65.592 209.281 66.008C210.001 66.408 210.809 66.608 211.705 66.608Z" fill="white"/>
</svg>
