<svg width="24" height="29" viewBox="0 0 24 29" fill="none" xmlns="http://www.w3.org/2000/svg">
<path d="M20.4054 5.9875C18.1607 3.7375 15.1714 2.5 11.9946 2.5C5.4375 2.5 0.101786 7.83571 0.101786 14.3929C0.101786 16.4875 0.648214 18.5339 1.6875 20.3393L0 26.5L6.30536 24.8446C8.04107 25.7928 9.99643 26.2911 11.9893 26.2911H11.9946C18.5464 26.2911 24 20.9554 24 14.3982C24 11.2214 22.65 8.2375 20.4054 5.9875ZM11.9946 24.2875C10.2161 24.2875 8.475 23.8107 6.95893 22.9107L6.6 22.6964L2.86071 23.6768L3.85714 20.0286L3.62143 19.6536C2.63036 18.0786 2.11071 16.2625 2.11071 14.3929C2.11071 8.94464 6.54643 4.50893 12 4.50893C14.6411 4.50893 17.1214 5.5375 18.9857 7.40714C20.85 9.27678 21.9964 11.7571 21.9911 14.3982C21.9911 19.8518 17.4429 24.2875 11.9946 24.2875ZM17.4161 16.8839C17.1214 16.7339 15.6589 16.0161 15.3857 15.9196C15.1125 15.8179 14.9143 15.7696 14.7161 16.0696C14.5179 16.3696 13.95 17.0339 13.7732 17.2375C13.6018 17.4357 13.425 17.4625 13.1304 17.3125C11.3839 16.4393 10.2375 15.7536 9.08571 13.7768C8.78036 13.2518 9.39107 13.2893 9.95893 12.1536C10.0554 11.9554 10.0071 11.7839 9.93214 11.6339C9.85714 11.4839 9.2625 10.0214 9.01607 9.42678C8.775 8.84821 8.52857 8.92857 8.34643 8.91785C8.175 8.90714 7.97679 8.90714 7.77857 8.90714C7.58036 8.90714 7.25893 8.98214 6.98571 9.27678C6.7125 9.57678 5.94643 10.2946 5.94643 11.7571C5.94643 13.2196 7.0125 14.6339 7.15714 14.8321C7.30714 15.0304 9.25179 18.0304 12.2357 19.3214C14.1214 20.1357 14.8607 20.2053 15.8036 20.0661C16.3768 19.9804 17.5607 19.3482 17.8071 18.6518C18.0536 17.9554 18.0536 17.3607 17.9786 17.2375C17.9089 17.1036 17.7107 17.0286 17.4161 16.8839Z" fill="white"/>
</svg>
